<svg height="32" viewBox="0 0 32 32" width="32" xmlns="http://www.w3.org/2000/svg"><path d="m15.188.807c-1.354 3.313-2.167 5.484-3.672 8.703.922.979 2.057 2.12 3.896 3.406-1.979-.818-3.328-1.635-4.339-2.484-1.927 4.026-4.948 9.75-11.073 20.76 4.818-2.781 8.547-4.495 12.026-5.151-.146-.641-.234-1.333-.229-2.063l.005-.151c.078-3.089 1.682-5.458 3.583-5.297s3.38 2.792 3.307 5.88c-.016.578-.083 1.135-.198 1.656 3.443.672 7.135 2.38 11.885 5.125-.938-1.724-1.771-3.281-2.573-4.76-1.255-.974-2.568-2.245-5.24-3.62 1.839.479 3.151 1.031 4.177 1.646-8.12-15.109-8.771-17.12-11.557-23.651zm15.343 27.672v-.828h-.313v-.115h.75v.115h-.313v.828h-.125zm.568 0v-.943h.188l.224.667c.021.063.036.109.042.141.01-.031.031-.083.052-.151l.224-.656h.172v.943h-.12v-.792l-.276.792h-.115l-.271-.802v.802h-.12z"/></svg>